<svg width="165" height="39" viewBox="0 0 165 39" xmlns="http://www.w3.org/2000/svg">
<path d="M8.401 31.31C6.68567 31.31 5.22867 31 4.03 30.38C2.83133 29.76 1.75667 28.8507 0.806 27.652L3.224 25.234C3.82333 26.102 4.53633 26.784 5.363 27.28C6.18967 27.7553 7.24367 27.993 8.525 27.993C9.72367 27.993 10.6743 27.745 11.377 27.249C12.1003 26.753 12.462 26.071 12.462 25.203C12.462 24.4797 12.276 23.8907 11.904 23.436C11.532 22.9813 11.036 22.6093 10.416 22.32C9.81667 22.01 9.145 21.7413 8.401 21.514C7.67767 21.266 6.944 20.9973 6.2 20.708C5.47667 20.398 4.805 20.0157 4.185 19.561C3.58567 19.1063 3.1 18.5173 2.728 17.794C2.356 17.0707 2.17 16.151 2.17 15.035C2.17 13.7537 2.48 12.6687 3.1 11.78C3.74067 10.8707 4.59833 10.1783 5.673 9.703C6.74767 9.22767 7.94633 8.99 9.269 8.99C10.695 8.99 11.966 9.269 13.082 9.827C14.2187 10.385 15.1383 11.098 15.841 11.966L13.423 14.384C12.803 13.6813 12.152 13.1647 11.47 12.834C10.8087 12.4827 10.044 12.307 9.176 12.307C8.10133 12.307 7.254 12.524 6.634 12.958C6.03467 13.392 5.735 14.0017 5.735 14.787C5.735 15.4483 5.921 15.9857 6.293 16.399C6.665 16.7917 7.15067 17.1327 7.75 17.422C8.37 17.6907 9.04167 17.949 9.765 18.197C10.509 18.445 11.2427 18.724 11.966 19.034C12.71 19.344 13.3817 19.747 13.981 20.243C14.601 20.7183 15.097 21.3383 15.469 22.103C15.841 22.8677 16.027 23.8287 16.027 24.986C16.027 26.9287 15.3347 28.4683 13.95 29.605C12.586 30.7417 10.7363 31.31 8.401 31.31ZM22.3716 31V9.3H25.9366V31H22.3716ZM36.1666 31V9.3H39.7316V31H36.1666ZM24.8206 21.39V18.135H36.9416V21.39H24.8206ZM57.2129 31.31C55.6629 31.31 54.2163 31.0207 52.8729 30.442C51.5296 29.8633 50.3516 29.0677 49.3389 28.055C48.3263 27.0217 47.5306 25.8333 46.9519 24.49C46.3939 23.126 46.1149 21.669 46.1149 20.119C46.1149 18.569 46.3939 17.1223 46.9519 15.779C47.5306 14.4357 48.3159 13.2577 49.3079 12.245C50.3206 11.2117 51.4883 10.416 52.8109 9.858C54.1543 9.27933 55.6009 8.99 57.1509 8.99C58.7009 8.99 60.1373 9.27933 61.4599 9.858C62.8033 10.416 63.9813 11.2117 64.9939 12.245C66.0066 13.2577 66.7919 14.446 67.3499 15.81C67.9286 17.1533 68.2179 18.6 68.2179 20.15C68.2179 21.7 67.9286 23.157 67.3499 24.521C66.7919 25.8643 66.0066 27.0423 64.9939 28.055C64.0019 29.0677 62.8343 29.8633 61.4909 30.442C60.1683 31.0207 58.7423 31.31 57.2129 31.31ZM57.1509 27.9C58.6183 27.9 59.8996 27.5693 60.9949 26.908C62.1109 26.2467 62.9789 25.3373 63.5989 24.18C64.2396 23.002 64.5599 21.6483 64.5599 20.119C64.5599 18.9823 64.3739 17.949 64.0019 17.019C63.6506 16.0683 63.1443 15.252 62.4829 14.57C61.8216 13.8673 61.0363 13.33 60.1269 12.958C59.2383 12.586 58.2463 12.4 57.1509 12.4C55.7043 12.4 54.4229 12.7307 53.3069 13.392C52.2116 14.0327 51.3436 14.9317 50.7029 16.089C50.0829 17.2463 49.7729 18.5897 49.7729 20.119C49.7729 21.2557 49.9486 22.3097 50.2999 23.281C50.6719 24.2317 51.1783 25.048 51.8189 25.73C52.4803 26.412 53.2656 26.9493 54.1749 27.342C55.0843 27.714 56.0763 27.9 57.1509 27.9ZM77.0822 22.816V19.716H82.5072C83.2512 19.716 83.9022 19.5713 84.4602 19.282C85.0389 18.972 85.4936 18.5483 85.8242 18.011C86.1549 17.453 86.3202 16.802 86.3202 16.058C86.3202 15.314 86.1549 14.6733 85.8242 14.136C85.4936 13.578 85.0389 13.1543 84.4602 12.865C83.9022 12.555 83.2512 12.4 82.5072 12.4H77.0822V9.3H82.6932C84.0572 9.3 85.2766 9.579 86.3512 10.137C87.4466 10.695 88.3042 11.4803 88.9242 12.493C89.5649 13.5057 89.8852 14.694 89.8852 16.058C89.8852 17.422 89.5649 18.6103 88.9242 19.623C88.3042 20.6357 87.4466 21.421 86.3512 21.979C85.2766 22.537 84.0572 22.816 82.6932 22.816H77.0822ZM74.6332 31V9.3H78.1982V31H74.6332ZM96.8452 31V10.044H97.8372V31H96.8452ZM97.4032 31V30.101H109.555V31H97.4032ZM116.921 31V10.044H117.913V31H116.921ZM133.273 31V10.633H134.265V31H133.273ZM125.306 10.943V10.044H142.232V10.943H125.306ZM149.596 31V10.044H150.588V31H149.596ZM150.154 31V30.101H163.081V31H150.154ZM150.154 20.677V19.809H162.151V20.677H150.154ZM150.154 10.943V10.044H162.895V10.943H150.154Z"/>
</svg>
