<svg width="16" height="16" viewBox="0 0 16 16" fill="none" xmlns="http://www.w3.org/2000/svg">
<path d="M6.10183 3.60534C6.9465 2.09068 7.3685 1.33334 7.99983 1.33334C8.63116 1.33334 9.05316 2.09068 9.89783 3.60534L10.1165 3.99734C10.3565 4.42801 10.4765 4.64334 10.6632 4.78534C10.8498 4.92734 11.0832 4.98001 11.5498 5.08534L11.9738 5.18134C13.6138 5.55268 14.4332 5.73801 14.6285 6.36534C14.8232 6.99201 14.2645 7.64601 13.1465 8.95334L12.8572 9.29134C12.5398 9.66268 12.3805 9.84868 12.3092 10.078C12.2378 10.308 12.2618 10.556 12.3098 11.0513L12.3538 11.5027C12.5225 13.2473 12.6072 14.1193 12.0965 14.5067C11.5858 14.8947 10.8178 14.5407 9.28316 13.834L8.88516 13.6513C8.44916 13.45 8.23116 13.35 7.99983 13.35C7.7685 13.35 7.5505 13.45 7.1145 13.6513L6.71716 13.834C5.18183 14.5407 4.41383 14.894 3.90383 14.5073C3.3925 14.1193 3.47716 13.2473 3.64583 11.5027L3.68983 11.052C3.73783 10.556 3.76183 10.308 3.68983 10.0787C3.61916 9.84868 3.45983 9.66268 3.1425 9.29201L2.85316 8.95334C1.73516 7.64668 1.1765 6.99268 1.37116 6.36534C1.5665 5.73801 2.3865 5.55201 4.0265 5.18134L4.4505 5.08534C4.9165 4.98001 5.14916 4.92734 5.3365 4.78534C5.52316 4.64334 5.64316 4.42801 5.88316 3.99734L6.10183 3.60534Z" fill="#FF6543"/>
</svg>
