<svg width="27" height="27" viewBox="0 0 27 27" xmlns="http://www.w3.org/2000/svg">
<path clip-rule="evenodd" d="M12.9375 3.09375C11.6448 3.09375 10.3648 3.34837 9.17046 3.84306C7.97616 4.33776 6.891 5.06284 5.97692 5.97692C5.06284 6.891 4.33776 7.97616 3.84306 9.17046C3.34837 10.3648 3.09375 11.6448 3.09375 12.9375C3.09375 14.2302 3.34837 15.5102 3.84306 16.7045C4.33776 17.8988 5.06284 18.984 5.97692 19.8981C6.891 20.8122 7.97616 21.5372 9.17046 22.0319C10.3648 22.5266 11.6448 22.7813 12.9375 22.7813C15.5482 22.7813 18.052 21.7441 19.8981 19.8981C21.7441 18.052 22.7813 15.5482 22.7813 12.9375C22.7813 10.3268 21.7441 7.82298 19.8981 5.97692C18.052 4.13086 15.5482 3.09375 12.9375 3.09375ZM1.40625 12.9375C1.40625 6.57 6.57 1.40625 12.9375 1.40625C19.305 1.40625 24.4688 6.57 24.4688 12.9375C24.4688 15.8175 23.4124 18.4523 21.6664 20.4728L25.3463 24.1538C25.4292 24.231 25.4956 24.3241 25.5418 24.4276C25.5879 24.5311 25.6127 24.6429 25.6147 24.7562C25.6167 24.8695 25.5958 24.982 25.5534 25.0871C25.511 25.1921 25.4478 25.2876 25.3677 25.3677C25.2876 25.4478 25.1921 25.511 25.0871 25.5534C24.982 25.5958 24.8695 25.6167 24.7562 25.6147C24.6429 25.6127 24.5311 25.5879 24.4276 25.5418C24.3241 25.4956 24.231 25.4292 24.1538 25.3463L20.4728 21.6664C18.3806 23.4777 15.7048 24.4728 12.9375 24.4688C6.57 24.4688 1.40625 19.305 1.40625 12.9375Z"/>
</svg>
