<svg width="13" height="26" viewBox="0 0 13 26" fill="none" xmlns="http://www.w3.org/2000/svg">
<path fill-rule="evenodd" clip-rule="evenodd" d="M0.436445 0.300032C0.688243 0.0846885 1.01524 -0.0218789 1.34557 0.00374745C1.6759 0.0293738 1.98254 0.185098 2.19811 0.436699L12.1981 12.1034C12.3922 12.3299 12.4989 12.6184 12.4989 12.9167C12.4989 13.215 12.3922 13.5035 12.1981 13.73L2.19811 25.3967C1.97897 25.636 1.67536 25.7807 1.35147 25.8002C1.02758 25.8198 0.708784 25.7126 0.462481 25.5013C0.216177 25.2901 0.0616684 24.9914 0.0316168 24.6683C0.00156527 24.3452 0.0983262 24.0231 0.301445 23.77L9.60311 12.9167L0.301445 2.06337C0.0857049 1.81199 -0.0214326 1.48526 0.00356769 1.15494C0.0285679 0.824625 0.183661 0.517741 0.434778 0.301699" fill="#BDBDBD"/>
</svg>
