<svg width="13" height="26" viewBox="0 0 13 26" fill="none" xmlns="http://www.w3.org/2000/svg">
<path fill-rule="evenodd" clip-rule="evenodd" d="M12.0625 0.29907C12.1872 0.405949 12.2896 0.536357 12.3639 0.682838C12.4381 0.829319 12.4828 0.989002 12.4954 1.15276C12.5079 1.31652 12.4881 1.48115 12.4369 1.63723C12.3858 1.79331 12.3044 1.93779 12.1975 2.0624L2.8958 12.9157L12.1975 23.7691C12.3106 23.8927 12.3978 24.0377 12.4538 24.1957C12.5098 24.3536 12.5334 24.5212 12.5233 24.6885C12.5132 24.8558 12.4696 25.0193 12.3951 25.1694C12.3205 25.3194 12.2166 25.453 12.0894 25.5621C11.9622 25.6712 11.8143 25.7536 11.6546 25.8044C11.495 25.8552 11.3267 25.8734 11.1598 25.8579C10.993 25.8424 10.8309 25.7935 10.6834 25.7141C10.5358 25.6347 10.4057 25.5264 10.3008 25.3957L0.300795 13.7291C0.106689 13.5025 0 13.2141 0 12.9157C0 12.6174 0.106689 12.3289 0.300795 12.1024L10.3008 0.435737C10.5166 0.184379 10.8234 0.0289703 11.1537 0.00365702C11.484 -0.0216563 11.8109 0.0851963 12.0625 0.300738" fill="#BDBDBD"/>
</svg>
